<svg width="32" height="32" viewBox="0 0 32 32" fill="none" xmlns="http://www.w3.org/2000/svg">
  <defs>
    <!-- Gradient for mesh -->
    <linearGradient id="meshGrad" x1="0%" y1="0%" x2="100%" y2="100%">
      <stop offset="0%" stop-color="#0ea5e9"/>
      <stop offset="100%" stop-color="#22d3ee"/>
    </linearGradient>
    <!-- Glow filter -->
    <filter id="glow" x="-50%" y="-50%" width="200%" height="200%">
      <feGaussianBlur stdDeviation="0.5" result="blur"/>
      <feMerge>
        <feMergeNode in="blur"/>
        <feMergeNode in="SourceGraphic"/>
      </feMerge>
    </filter>
  </defs>

  <!-- Dark background -->
  <rect width="32" height="32" rx="6" fill="#05070A"/>

  <!-- Simplified globe mesh -->
  <g stroke="url(#meshGrad)" fill="none" opacity="0.4">
    <ellipse cx="16" cy="16" rx="11" ry="11" stroke-width="0.4"/>
    <ellipse cx="16" cy="16" rx="11" ry="4" stroke-width="0.3"/>
    <ellipse cx="16" cy="16" rx="11" ry="4" stroke-width="0.3" transform="rotate(60, 16, 16)"/>
    <ellipse cx="16" cy="16" rx="11" ry="4" stroke-width="0.3" transform="rotate(-60, 16, 16)"/>
  </g>

  <!-- A structure -->
  <g filter="url(#glow)" stroke="#22d3ee" stroke-width="1.2" stroke-linecap="round">
    <line x1="16" y1="8" x2="9" y2="26"/>
    <line x1="16" y1="8" x2="23" y2="26"/>
    <line x1="11.5" y1="18" x2="20.5" y2="18"/>
  </g>

  <!-- Nodes -->
  <g fill="#22d3ee">
    <circle cx="9" cy="26" r="1.5"/>
    <circle cx="23" cy="26" r="1.5"/>
    <circle cx="11.5" cy="18" r="1"/>
    <circle cx="20.5" cy="18" r="1"/>
  </g>

  <!-- Heart at apex -->
  <g transform="translate(16, 6) scale(0.18)">
    <path d="M0 4 C -4 -2, -10 0, -10 6 C -10 12, 0 20, 0 20 C 0 20, 10 12, 10 6 C 10 0, 4 -2, 0 4 Z" fill="#f43f5e"/>
  </g>
</svg>
